# xmcd
#
# Track frame offsets: 
#        150
#        11742
#        26078
#        37170
#        51488
#        66046
#        77836
#        89681
#        104770
#        117647
#        129343
#        140797
#        153548
#        164701
#        175265
#        185654
#        195267
#        204907
#        217719
#        228652
#        238343
#        250599
#        262063
#        271460
#        281651
#        292297
#        303594
#        314257
#
# Disc length: 4349 seconds
#
# Revision: 0
# Processed by: cddbd v1.5.2PL0 Copyright (c) Steve Scherf et al.
# Submitted via: ExactAudioCopy v0.99pb5
#
DISCID=be10fb1c
DTITLE=Annisteen Allen - Fujiyama Mama
DYEAR=1900
DGENRE=R&B
TTITLE0=Hard To Get Along
TTITLE1=Cloudy Day Blues
TTITLE2=Lies, Lies, Lies
TTITLE3=Too Long
TTITLE4=Mr. Trumpet Man
TTITLE5=I'm Waiting Just For You
TTITLE6=Bongo Boogie
TTITLE7=The Bittersweet
TTITLE8=The Bluest Blues
TTITLE9=Trying To Live Without You
TTITLE10=My Baby Keeps Rollin
TTITLE11=Yes, I Know
TTITLE12=Baby I'm Doin It
TTITLE13=Wanted
TTITLE14=I Don't Want No Substitute
TTITLE15=Down By The River
TTITLE16=My Brand Of Loving
TTITLE17=No More Lovin'
TTITLE18=Take A Chance On Me
TTITLE19=I've Got Troubles
TTITLE20=Nothing Can Replace You
TTITLE21=Fujiyama Mama
TTITLE22=Wheels Of Love
TTITLE23=Everybody Knows I Love You
TTITLE24=G'wan About Your Business
TTITLE25=Slow But Sure
TTITLE26=I'm Still In Love With You
TTITLE27=Mine All Mine
EXTD=
EXTT0=
EXTT1=
EXTT2=
EXTT3=
EXTT4=
EXTT5=
EXTT6=
EXTT7=
EXTT8=
EXTT9=
EXTT10=
EXTT11=
EXTT12=
EXTT13=
EXTT14=
EXTT15=
EXTT16=
EXTT17=
EXTT18=
EXTT19=
EXTT20=
EXTT21=
EXTT22=
EXTT23=
EXTT24=
EXTT25=
EXTT26=
EXTT27=
PLAYORDER=
